<svg xmlns="http://www.w3.org/2000/svg" width="860" height="535" viewBox="0 0 860 535" font-family="-apple-system, BlinkMacSystemFont, 'Segoe UI', Helvetica, Arial, sans-serif"><text x="16" y="24" fill="#e6edf3" font-size="16" text-anchor="start" font-weight="600">1,000 random reads: Tessera vs FlatBuffers</text><text x="16" y="44" fill="#9198a1" font-size="12" text-anchor="start">Times faster per workload. Left of 1× Tessera is slower; log scale.</text><rect x="16" y="56" width="12" height="12" rx="2" fill="#fff5e5"/><text x="34" y="66.5" fill="#9198a1" font-size="12" text-anchor="start">Clang 19.1</text><rect x="116" y="56" width="12" height="12" rx="2" fill="#15cfc5"/><text x="134" y="66.5" fill="#9198a1" font-size="12" text-anchor="start">GCC 15.2</text><rect x="202" y="56" width="12" height="12" rx="2" fill="#0e8f96"/><text x="220" y="66.5" fill="#9198a1" font-size="12" text-anchor="start">MSVC 19.42</text><line x1="210" y1="94" x2="210" y2="507" stroke="#3d444d" stroke-width="1"/><text x="210" y="523" fill="#9198a1" font-size="11" text-anchor="middle" font-family="ui-monospace, SFMono-Regular, Consolas, 'Liberation Mono', monospace">1/4×</text><line x1="350" y1="94" x2="350" y2="507" stroke="#3d444d" stroke-width="1"/><text x="350" y="523" fill="#9198a1" font-size="11" text-anchor="middle" font-family="ui-monospace, SFMono-Regular, Consolas, 'Liberation Mono', monospace">1/2×</text><line x1="490" y1="94" x2="490" y2="507" stroke="#9198a1" stroke-width="1.5" stroke-dasharray="4 3"/><text x="490" y="523" fill="#9198a1" font-size="11" text-anchor="middle" font-family="ui-monospace, SFMono-Regular, Consolas, 'Liberation Mono', monospace">1×</text><line x1="630" y1="94" x2="630" y2="507" stroke="#3d444d" stroke-width="1"/><text x="630" y="523" fill="#9198a1" font-size="11" text-anchor="middle" font-family="ui-monospace, SFMono-Regular, Consolas, 'Liberation Mono', monospace">2×</text><line x1="770" y1="94" x2="770" y2="507" stroke="#3d444d" stroke-width="1"/><text x="770" y="523" fill="#9198a1" font-size="11" text-anchor="middle" font-family="ui-monospace, SFMono-Regular, Consolas, 'Liberation Mono', monospace">4×</text><text x="16" y="125" fill="#e6edf3" font-size="13" text-anchor="start" font-weight="600">prefab</text><rect x="490" y="104" width="10.8" height="9" rx="1.5" fill="#fff5e5"/><text x="505.8" y="112" fill="#e6edf3" font-size="11" text-anchor="start" font-family="ui-monospace, SFMono-Regular, Consolas, 'Liberation Mono', monospace">1.05×</text><rect x="490" y="116" width="11.3" height="9" rx="1.5" fill="#15cfc5"/><text x="506.3" y="124" fill="#e6edf3" font-size="11" text-anchor="start" font-family="ui-monospace, SFMono-Regular, Consolas, 'Liberation Mono', monospace">1.06×</text><rect x="490" y="128" width="72.4" height="9" rx="1.5" fill="#0e8f96"/><text x="567.4" y="136" fill="#e6edf3" font-size="11" text-anchor="start" font-family="ui-monospace, SFMono-Regular, Consolas, 'Liberation Mono', monospace">1.43×</text><text x="16" y="177" fill="#e6edf3" font-size="13" text-anchor="start" font-weight="600">monsters</text><rect x="490" y="156" width="6.8" height="9" rx="1.5" fill="#fff5e5"/><text x="501.8" y="164" fill="#e6edf3" font-size="11" text-anchor="start" font-family="ui-monospace, SFMono-Regular, Consolas, 'Liberation Mono', monospace">1.03×</text><rect x="490" y="168" width="33.2" height="9" rx="1.5" fill="#15cfc5"/><text x="528.2" y="176" fill="#e6edf3" font-size="11" text-anchor="start" font-family="ui-monospace, SFMono-Regular, Consolas, 'Liberation Mono', monospace">1.18×</text><rect x="490" y="180" width="110.6" height="9" rx="1.5" fill="#0e8f96"/><text x="605.6" y="188" fill="#e6edf3" font-size="11" text-anchor="start" font-family="ui-monospace, SFMono-Regular, Consolas, 'Liberation Mono', monospace">1.73×</text><text x="16" y="229" fill="#e6edf3" font-size="13" text-anchor="start" font-weight="600">records</text><rect x="490" y="208" width="26.6" height="9" rx="1.5" fill="#fff5e5"/><text x="521.6" y="216" fill="#e6edf3" font-size="11" text-anchor="start" font-family="ui-monospace, SFMono-Regular, Consolas, 'Liberation Mono', monospace">1.14×</text><rect x="489.1" y="220" width="1.5" height="9" rx="1.5" fill="#15cfc5"/><text x="484.1" y="228" fill="#e6edf3" font-size="11" text-anchor="end" font-family="ui-monospace, SFMono-Regular, Consolas, 'Liberation Mono', monospace">1.00×</text><rect x="490" y="232" width="57.7" height="9" rx="1.5" fill="#0e8f96"/><text x="552.7" y="240" fill="#e6edf3" font-size="11" text-anchor="start" font-family="ui-monospace, SFMono-Regular, Consolas, 'Liberation Mono', monospace">1.33×</text><text x="16" y="281" fill="#e6edf3" font-size="13" text-anchor="start" font-weight="600">series</text><rect x="490" y="260" width="30.8" height="9" rx="1.5" fill="#fff5e5"/><text x="525.8" y="268" fill="#e6edf3" font-size="11" text-anchor="start" font-family="ui-monospace, SFMono-Regular, Consolas, 'Liberation Mono', monospace">1.16×</text><rect x="490" y="272" width="34.3" height="9" rx="1.5" fill="#15cfc5"/><text x="529.3" y="280" fill="#e6edf3" font-size="11" text-anchor="start" font-family="ui-monospace, SFMono-Regular, Consolas, 'Liberation Mono', monospace">1.18×</text><rect x="490" y="284" width="27" height="9" rx="1.5" fill="#0e8f96"/><text x="522" y="292" fill="#e6edf3" font-size="11" text-anchor="start" font-family="ui-monospace, SFMono-Regular, Consolas, 'Liberation Mono', monospace">1.14×</text><text x="16" y="333" fill="#e6edf3" font-size="13" text-anchor="start" font-weight="600">dense-unique</text><rect x="490" y="312" width="36.7" height="9" rx="1.5" fill="#fff5e5"/><text x="531.7" y="320" fill="#e6edf3" font-size="11" text-anchor="start" font-family="ui-monospace, SFMono-Regular, Consolas, 'Liberation Mono', monospace">1.20×</text><rect x="490" y="324" width="10.4" height="9" rx="1.5" fill="#15cfc5"/><text x="505.4" y="332" fill="#e6edf3" font-size="11" text-anchor="start" font-family="ui-monospace, SFMono-Regular, Consolas, 'Liberation Mono', monospace">1.05×</text><rect x="490" y="336" width="28.4" height="9" rx="1.5" fill="#0e8f96"/><text x="523.4" y="344" fill="#e6edf3" font-size="11" text-anchor="start" font-family="ui-monospace, SFMono-Regular, Consolas, 'Liberation Mono', monospace">1.15×</text><text x="16" y="385" fill="#e6edf3" font-size="13" text-anchor="start" font-weight="600">sparse-unique</text><rect x="490" y="364" width="147.9" height="9" rx="1.5" fill="#fff5e5"/><text x="642.9" y="372" fill="#e6edf3" font-size="11" text-anchor="start" font-family="ui-monospace, SFMono-Regular, Consolas, 'Liberation Mono', monospace">2.08×</text><rect x="490" y="376" width="8.4" height="9" rx="1.5" fill="#15cfc5"/><text x="503.4" y="384" fill="#e6edf3" font-size="11" text-anchor="start" font-family="ui-monospace, SFMono-Regular, Consolas, 'Liberation Mono', monospace">1.04×</text><rect x="490" y="388" width="48.8" height="9" rx="1.5" fill="#0e8f96"/><text x="543.8" y="396" fill="#e6edf3" font-size="11" text-anchor="start" font-family="ui-monospace, SFMono-Regular, Consolas, 'Liberation Mono', monospace">1.27×</text><text x="16" y="437" fill="#e6edf3" font-size="13" text-anchor="start" font-weight="600">dense-shared</text><rect x="490" y="416" width="45.4" height="9" rx="1.5" fill="#fff5e5"/><text x="540.4" y="424" fill="#e6edf3" font-size="11" text-anchor="start" font-family="ui-monospace, SFMono-Regular, Consolas, 'Liberation Mono', monospace">1.25×</text><rect x="490" y="428" width="24" height="9" rx="1.5" fill="#15cfc5"/><text x="519" y="436" fill="#e6edf3" font-size="11" text-anchor="start" font-family="ui-monospace, SFMono-Regular, Consolas, 'Liberation Mono', monospace">1.13×</text><rect x="490" y="440" width="10.4" height="9" rx="1.5" fill="#0e8f96"/><text x="505.4" y="448" fill="#e6edf3" font-size="11" text-anchor="start" font-family="ui-monospace, SFMono-Regular, Consolas, 'Liberation Mono', monospace">1.05×</text><text x="16" y="489" fill="#e6edf3" font-size="13" text-anchor="start" font-weight="600">lookup</text><rect x="490" y="468" width="37.7" height="9" rx="1.5" fill="#fff5e5"/><text x="532.7" y="476" fill="#e6edf3" font-size="11" text-anchor="start" font-family="ui-monospace, SFMono-Regular, Consolas, 'Liberation Mono', monospace">1.21×</text><rect x="490" y="480" width="75.1" height="9" rx="1.5" fill="#15cfc5"/><text x="570.1" y="488" fill="#e6edf3" font-size="11" text-anchor="start" font-family="ui-monospace, SFMono-Regular, Consolas, 'Liberation Mono', monospace">1.45×</text><rect x="490" y="492" width="101" height="9" rx="1.5" fill="#0e8f96"/><text x="596" y="500" fill="#e6edf3" font-size="11" text-anchor="start" font-family="ui-monospace, SFMono-Regular, Consolas, 'Liberation Mono', monospace">1.65×</text></svg>
