<svg xmlns="http://www.w3.org/2000/svg" width="860" height="496" viewBox="0 0 860 496" font-family="-apple-system, BlinkMacSystemFont, 'Segoe UI', Helvetica, Arial, sans-serif"><text x="16" y="24" fill="#e6edf3" font-size="16" text-anchor="start" font-weight="600">.NET write</text><text x="16" y="44" fill="#9198a1" font-size="12" text-anchor="start">Microseconds per buffer, to byte[]; shorter is better. Each workload has its own scale.</text><rect x="16" y="56" width="12" height="12" rx="2" fill="#15cfc5"/><text x="34" y="66.5" fill="#9198a1" font-size="12" text-anchor="start">Tessera</text><rect x="95" y="56" width="12" height="12" rx="2" fill="#848d97"/><text x="113" y="66.5" fill="#9198a1" font-size="12" text-anchor="start">FlatBuffers</text><rect x="202" y="56" width="12" height="12" rx="2" fill="#b392f0"/><text x="220" y="66.5" fill="#9198a1" font-size="12" text-anchor="start">MessagePack</text><text x="16" y="114.5" fill="#e6edf3" font-size="13" text-anchor="start" font-weight="600">prefab</text><rect x="210" y="92" width="129.2" height="10" rx="1.5" fill="#15cfc5"/><text x="344.2" y="101" fill="#e6edf3" font-size="11" text-anchor="start" font-weight="600" font-family="ui-monospace, SFMono-Regular, Consolas, 'Liberation Mono', monospace">73.8</text><rect x="210" y="105" width="560" height="10" rx="1.5" fill="#848d97"/><text x="775" y="114" fill="#9198a1" font-size="11" text-anchor="start" font-family="ui-monospace, SFMono-Regular, Consolas, 'Liberation Mono', monospace">320</text><rect x="210" y="118" width="309.5" height="10" rx="1.5" fill="#b392f0"/><text x="524.5" y="127" fill="#9198a1" font-size="11" text-anchor="start" font-family="ui-monospace, SFMono-Regular, Consolas, 'Liberation Mono', monospace">177</text><text x="16" y="164.5" fill="#e6edf3" font-size="13" text-anchor="start" font-weight="600">monsters</text><rect x="210" y="142" width="128" height="10" rx="1.5" fill="#15cfc5"/><text x="343" y="151" fill="#e6edf3" font-size="11" text-anchor="start" font-weight="600" font-family="ui-monospace, SFMono-Regular, Consolas, 'Liberation Mono', monospace">182</text><rect x="210" y="155" width="560" height="10" rx="1.5" fill="#848d97"/><text x="775" y="164" fill="#9198a1" font-size="11" text-anchor="start" font-family="ui-monospace, SFMono-Regular, Consolas, 'Liberation Mono', monospace">795</text><rect x="210" y="168" width="212.1" height="10" rx="1.5" fill="#b392f0"/><text x="427.1" y="177" fill="#9198a1" font-size="11" text-anchor="start" font-family="ui-monospace, SFMono-Regular, Consolas, 'Liberation Mono', monospace">301</text><text x="16" y="214.5" fill="#e6edf3" font-size="13" text-anchor="start" font-weight="600">records</text><rect x="210" y="192" width="18.4" height="10" rx="1.5" fill="#15cfc5"/><text x="233.4" y="201" fill="#e6edf3" font-size="11" text-anchor="start" font-weight="600" font-family="ui-monospace, SFMono-Regular, Consolas, 'Liberation Mono', monospace">260</text><rect x="210" y="205" width="560" height="10" rx="1.5" fill="#848d97"/><text x="775" y="214" fill="#9198a1" font-size="11" text-anchor="start" font-family="ui-monospace, SFMono-Regular, Consolas, 'Liberation Mono', monospace">7,911</text><rect x="210" y="218" width="64.9" height="10" rx="1.5" fill="#b392f0"/><text x="279.9" y="227" fill="#9198a1" font-size="11" text-anchor="start" font-family="ui-monospace, SFMono-Regular, Consolas, 'Liberation Mono', monospace">917</text><text x="16" y="264.5" fill="#e6edf3" font-size="13" text-anchor="start" font-weight="600">series</text><rect x="210" y="242" width="119.3" height="10" rx="1.5" fill="#15cfc5"/><text x="334.3" y="251" fill="#e6edf3" font-size="11" text-anchor="start" font-weight="600" font-family="ui-monospace, SFMono-Regular, Consolas, 'Liberation Mono', monospace">359</text><rect x="210" y="255" width="560" height="10" rx="1.5" fill="#848d97"/><text x="775" y="264" fill="#9198a1" font-size="11" text-anchor="start" font-family="ui-monospace, SFMono-Regular, Consolas, 'Liberation Mono', monospace">1,684</text><rect x="210" y="268" width="203.7" height="10" rx="1.5" fill="#b392f0"/><text x="418.7" y="277" fill="#9198a1" font-size="11" text-anchor="start" font-family="ui-monospace, SFMono-Regular, Consolas, 'Liberation Mono', monospace">613</text><text x="16" y="314.5" fill="#e6edf3" font-size="13" text-anchor="start" font-weight="600">dense-unique</text><rect x="210" y="292" width="125.3" height="10" rx="1.5" fill="#15cfc5"/><text x="340.3" y="301" fill="#e6edf3" font-size="11" text-anchor="start" font-weight="600" font-family="ui-monospace, SFMono-Regular, Consolas, 'Liberation Mono', monospace">43.9</text><rect x="210" y="305" width="560" height="10" rx="1.5" fill="#848d97"/><text x="775" y="314" fill="#9198a1" font-size="11" text-anchor="start" font-family="ui-monospace, SFMono-Regular, Consolas, 'Liberation Mono', monospace">196</text><rect x="210" y="318" width="242.8" height="10" rx="1.5" fill="#b392f0"/><text x="457.8" y="327" fill="#9198a1" font-size="11" text-anchor="start" font-family="ui-monospace, SFMono-Regular, Consolas, 'Liberation Mono', monospace">85.0</text><text x="16" y="364.5" fill="#e6edf3" font-size="13" text-anchor="start" font-weight="600">sparse-unique</text><rect x="210" y="342" width="89.1" height="10" rx="1.5" fill="#15cfc5"/><text x="304.1" y="351" fill="#e6edf3" font-size="11" text-anchor="start" font-weight="600" font-family="ui-monospace, SFMono-Regular, Consolas, 'Liberation Mono', monospace">20.5</text><rect x="210" y="355" width="560" height="10" rx="1.5" fill="#848d97"/><text x="775" y="364" fill="#9198a1" font-size="11" text-anchor="start" font-family="ui-monospace, SFMono-Regular, Consolas, 'Liberation Mono', monospace">129</text><rect x="210" y="368" width="316.9" height="10" rx="1.5" fill="#b392f0"/><text x="531.9" y="377" fill="#9198a1" font-size="11" text-anchor="start" font-family="ui-monospace, SFMono-Regular, Consolas, 'Liberation Mono', monospace">72.8</text><text x="16" y="414.5" fill="#e6edf3" font-size="13" text-anchor="start" font-weight="600">dense-shared</text><rect x="210" y="392" width="100.7" height="10" rx="1.5" fill="#15cfc5"/><text x="315.7" y="401" fill="#e6edf3" font-size="11" text-anchor="start" font-weight="600" font-family="ui-monospace, SFMono-Regular, Consolas, 'Liberation Mono', monospace">34.9</text><rect x="210" y="405" width="560" height="10" rx="1.5" fill="#848d97"/><text x="775" y="414" fill="#9198a1" font-size="11" text-anchor="start" font-family="ui-monospace, SFMono-Regular, Consolas, 'Liberation Mono', monospace">194</text><rect x="210" y="418" width="243" height="10" rx="1.5" fill="#b392f0"/><text x="458" y="427" fill="#9198a1" font-size="11" text-anchor="start" font-family="ui-monospace, SFMono-Regular, Consolas, 'Liberation Mono', monospace">84.3</text><text x="16" y="464.5" fill="#e6edf3" font-size="13" text-anchor="start" font-weight="600">lookup</text><rect x="210" y="442" width="21.7" height="10" rx="1.5" fill="#15cfc5"/><text x="236.7" y="451" fill="#e6edf3" font-size="11" text-anchor="start" font-weight="600" font-family="ui-monospace, SFMono-Regular, Consolas, 'Liberation Mono', monospace">227</text><rect x="210" y="455" width="560" height="10" rx="1.5" fill="#848d97"/><text x="775" y="464" fill="#9198a1" font-size="11" text-anchor="start" font-family="ui-monospace, SFMono-Regular, Consolas, 'Liberation Mono', monospace">5,842</text><rect x="210" y="468" width="23.9" height="10" rx="1.5" fill="#b392f0"/><text x="238.9" y="477" fill="#9198a1" font-size="11" text-anchor="start" font-family="ui-monospace, SFMono-Regular, Consolas, 'Liberation Mono', monospace">249</text></svg>
