<svg xmlns="http://www.w3.org/2000/svg" width="860" height="496" viewBox="0 0 860 496" font-family="-apple-system, BlinkMacSystemFont, 'Segoe UI', Helvetica, Arial, sans-serif"><text x="16" y="24" fill="#e6edf3" font-size="16" text-anchor="start" font-weight="600">.NET write</text><text x="16" y="44" fill="#9198a1" font-size="12" text-anchor="start">Microseconds per buffer, to byte[]; shorter is better. Each workload has its own scale.</text><rect x="16" y="56" width="12" height="12" rx="2" fill="#15cfc5"/><text x="34" y="66.5" fill="#9198a1" font-size="12" text-anchor="start">Tessera</text><rect x="95" y="56" width="12" height="12" rx="2" fill="#848d97"/><text x="113" y="66.5" fill="#9198a1" font-size="12" text-anchor="start">FlatBuffers</text><rect x="202" y="56" width="12" height="12" rx="2" fill="#b392f0"/><text x="220" y="66.5" fill="#9198a1" font-size="12" text-anchor="start">MessagePack</text><text x="16" y="114.5" fill="#e6edf3" font-size="13" text-anchor="start" font-weight="600">prefab</text><rect x="210" y="92" width="98.8" height="10" rx="1.5" fill="#15cfc5"/><text x="313.8" y="101" fill="#e6edf3" font-size="11" text-anchor="start" font-weight="600" font-family="ui-monospace, SFMono-Regular, Consolas, 'Liberation Mono', monospace">29.1</text><rect x="210" y="105" width="560" height="10" rx="1.5" fill="#848d97"/><text x="775" y="114" fill="#9198a1" font-size="11" text-anchor="start" font-family="ui-monospace, SFMono-Regular, Consolas, 'Liberation Mono', monospace">165</text><rect x="210" y="118" width="315.1" height="10" rx="1.5" fill="#b392f0"/><text x="530.1" y="127" fill="#9198a1" font-size="11" text-anchor="start" font-family="ui-monospace, SFMono-Regular, Consolas, 'Liberation Mono', monospace">93.0</text><text x="16" y="164.5" fill="#e6edf3" font-size="13" text-anchor="start" font-weight="600">monsters</text><rect x="210" y="142" width="122.8" height="10" rx="1.5" fill="#15cfc5"/><text x="337.8" y="151" fill="#e6edf3" font-size="11" text-anchor="start" font-weight="600" font-family="ui-monospace, SFMono-Regular, Consolas, 'Liberation Mono', monospace">85.9</text><rect x="210" y="155" width="560" height="10" rx="1.5" fill="#848d97"/><text x="775" y="164" fill="#9198a1" font-size="11" text-anchor="start" font-family="ui-monospace, SFMono-Regular, Consolas, 'Liberation Mono', monospace">392</text><rect x="210" y="168" width="217.6" height="10" rx="1.5" fill="#b392f0"/><text x="432.6" y="177" fill="#9198a1" font-size="11" text-anchor="start" font-family="ui-monospace, SFMono-Regular, Consolas, 'Liberation Mono', monospace">152</text><text x="16" y="214.5" fill="#e6edf3" font-size="13" text-anchor="start" font-weight="600">records</text><rect x="210" y="192" width="20.2" height="10" rx="1.5" fill="#15cfc5"/><text x="235.2" y="201" fill="#e6edf3" font-size="11" text-anchor="start" font-weight="600" font-family="ui-monospace, SFMono-Regular, Consolas, 'Liberation Mono', monospace">162</text><rect x="210" y="205" width="560" height="10" rx="1.5" fill="#848d97"/><text x="775" y="214" fill="#9198a1" font-size="11" text-anchor="start" font-family="ui-monospace, SFMono-Regular, Consolas, 'Liberation Mono', monospace">4,487</text><rect x="210" y="218" width="65.5" height="10" rx="1.5" fill="#b392f0"/><text x="280.5" y="227" fill="#9198a1" font-size="11" text-anchor="start" font-family="ui-monospace, SFMono-Regular, Consolas, 'Liberation Mono', monospace">525</text><text x="16" y="264.5" fill="#e6edf3" font-size="13" text-anchor="start" font-weight="600">series</text><rect x="210" y="242" width="129.2" height="10" rx="1.5" fill="#15cfc5"/><text x="344.2" y="251" fill="#e6edf3" font-size="11" text-anchor="start" font-weight="600" font-family="ui-monospace, SFMono-Regular, Consolas, 'Liberation Mono', monospace">204</text><rect x="210" y="255" width="560" height="10" rx="1.5" fill="#848d97"/><text x="775" y="264" fill="#9198a1" font-size="11" text-anchor="start" font-family="ui-monospace, SFMono-Regular, Consolas, 'Liberation Mono', monospace">883</text><rect x="210" y="268" width="203" height="10" rx="1.5" fill="#b392f0"/><text x="418" y="277" fill="#9198a1" font-size="11" text-anchor="start" font-family="ui-monospace, SFMono-Regular, Consolas, 'Liberation Mono', monospace">320</text><text x="16" y="314.5" fill="#e6edf3" font-size="13" text-anchor="start" font-weight="600">dense-unique</text><rect x="210" y="292" width="172.9" height="10" rx="1.5" fill="#15cfc5"/><text x="387.9" y="301" fill="#e6edf3" font-size="11" text-anchor="start" font-weight="600" font-family="ui-monospace, SFMono-Regular, Consolas, 'Liberation Mono', monospace">29.1</text><rect x="210" y="305" width="560" height="10" rx="1.5" fill="#848d97"/><text x="775" y="314" fill="#9198a1" font-size="11" text-anchor="start" font-family="ui-monospace, SFMono-Regular, Consolas, 'Liberation Mono', monospace">94.2</text><rect x="210" y="318" width="243.5" height="10" rx="1.5" fill="#b392f0"/><text x="458.5" y="327" fill="#9198a1" font-size="11" text-anchor="start" font-family="ui-monospace, SFMono-Regular, Consolas, 'Liberation Mono', monospace">41.0</text><text x="16" y="364.5" fill="#e6edf3" font-size="13" text-anchor="start" font-weight="600">sparse-unique</text><rect x="210" y="342" width="115.9" height="10" rx="1.5" fill="#15cfc5"/><text x="330.9" y="351" fill="#e6edf3" font-size="11" text-anchor="start" font-weight="600" font-family="ui-monospace, SFMono-Regular, Consolas, 'Liberation Mono', monospace">12.8</text><rect x="210" y="355" width="560" height="10" rx="1.5" fill="#848d97"/><text x="775" y="364" fill="#9198a1" font-size="11" text-anchor="start" font-family="ui-monospace, SFMono-Regular, Consolas, 'Liberation Mono', monospace">61.8</text><rect x="210" y="368" width="309.4" height="10" rx="1.5" fill="#b392f0"/><text x="524.4" y="377" fill="#9198a1" font-size="11" text-anchor="start" font-family="ui-monospace, SFMono-Regular, Consolas, 'Liberation Mono', monospace">34.1</text><text x="16" y="414.5" fill="#e6edf3" font-size="13" text-anchor="start" font-weight="600">dense-shared</text><rect x="210" y="392" width="100.6" height="10" rx="1.5" fill="#15cfc5"/><text x="315.6" y="401" fill="#e6edf3" font-size="11" text-anchor="start" font-weight="600" font-family="ui-monospace, SFMono-Regular, Consolas, 'Liberation Mono', monospace">16.8</text><rect x="210" y="405" width="560" height="10" rx="1.5" fill="#848d97"/><text x="775" y="414" fill="#9198a1" font-size="11" text-anchor="start" font-family="ui-monospace, SFMono-Regular, Consolas, 'Liberation Mono', monospace">93.8</text><rect x="210" y="418" width="242.7" height="10" rx="1.5" fill="#b392f0"/><text x="457.7" y="427" fill="#9198a1" font-size="11" text-anchor="start" font-family="ui-monospace, SFMono-Regular, Consolas, 'Liberation Mono', monospace">40.7</text><text x="16" y="464.5" fill="#e6edf3" font-size="13" text-anchor="start" font-weight="600">lookup</text><rect x="210" y="442" width="71.8" height="10" rx="1.5" fill="#15cfc5"/><text x="286.8" y="451" fill="#9198a1" font-size="11" text-anchor="start" font-family="ui-monospace, SFMono-Regular, Consolas, 'Liberation Mono', monospace">447</text><rect x="210" y="455" width="560" height="10" rx="1.5" fill="#848d97"/><text x="775" y="464" fill="#9198a1" font-size="11" text-anchor="start" font-family="ui-monospace, SFMono-Regular, Consolas, 'Liberation Mono', monospace">3,483</text><rect x="210" y="468" width="21.4" height="10" rx="1.5" fill="#b392f0"/><text x="236.4" y="477" fill="#e6edf3" font-size="11" text-anchor="start" font-weight="600" font-family="ui-monospace, SFMono-Regular, Consolas, 'Liberation Mono', monospace">133</text></svg>
